<mxfile host="65bd71144e">
    <diagram id="t3taB_fxp9X3aS4UT2nG" name="Page-1">
        <mxGraphModel dx="1783" dy="1476" grid="0" gridSize="10" guides="1" tooltips="1" connect="1" arrows="1" fold="1" page="1" pageScale="1" pageWidth="1400" pageHeight="1200" background="none" math="0" shadow="0">
            <root>
                <mxCell id="0"/>
                <mxCell id="1" parent="0"/>
                <mxCell id="12" value="Promofy Leaderboard Service Architecture" style="text;html=1;align=center;verticalAlign=middle;resizable=0;points=[];autosize=1;strokeColor=none;fillColor=none;fontSize=24;fontStyle=1" parent="1" vertex="1">
                    <mxGeometry x="160" y="80" width="480" height="40" as="geometry"/>
                </mxCell>
                <mxCell id="20" style="edgeStyle=none;html=1;exitX=1;exitY=0.5;exitDx=0;exitDy=0;entryX=0;entryY=0.5;entryDx=0;entryDy=0;endArrow=none;endFill=0;strokeWidth=2;" parent="1" source="14" target="16" edge="1">
                    <mxGeometry relative="1" as="geometry"/>
                </mxCell>
                <mxCell id="36" value="" style="group" parent="1" vertex="1" connectable="0">
                    <mxGeometry x="240" y="240" width="280" height="80" as="geometry"/>
                </mxCell>
                <mxCell id="14" value="App Controller" style="rounded=0;whiteSpace=wrap;html=1;" parent="36" vertex="1">
                    <mxGeometry width="280" height="40" as="geometry"/>
                </mxCell>
                <mxCell id="15" value="GET / health" style="rounded=0;whiteSpace=wrap;html=1;fillColor=none;" parent="36" vertex="1">
                    <mxGeometry y="40" width="280" height="40" as="geometry"/>
                </mxCell>
                <mxCell id="39" value="" style="group" parent="1" vertex="1" connectable="0">
                    <mxGeometry x="600" y="240" width="200" height="80" as="geometry"/>
                </mxCell>
                <mxCell id="16" value="App Service" style="rounded=0;whiteSpace=wrap;html=1;" parent="39" vertex="1">
                    <mxGeometry width="200" height="40" as="geometry"/>
                </mxCell>
                <mxCell id="17" value="Health Checks" style="rounded=0;whiteSpace=wrap;html=1;fillColor=none;" parent="39" vertex="1">
                    <mxGeometry y="40" width="200" height="40" as="geometry"/>
                </mxCell>
                <mxCell id="103" value="" style="image;sketch=0;aspect=fixed;html=1;points=[];align=center;fontSize=12;image=img/lib/mscae/Cache_Redis_Product.svg;" parent="1" vertex="1">
                    <mxGeometry x="1270" y="640" width="95.24" height="80" as="geometry"/>
                </mxCell>
                <mxCell id="107" value="" style="image;aspect=fixed;html=1;points=[];align=center;fontSize=12;image=img/lib/azure2/databases/Azure_Database_PostgreSQL_Server.svg;" parent="1" vertex="1">
                    <mxGeometry x="1277.62" y="920" width="80" height="106.67" as="geometry"/>
                </mxCell>
                <mxCell id="108" value="" style="edgeStyle=none;orthogonalLoop=1;jettySize=auto;html=1;endArrow=classic;startArrow=classic;endSize=8;startSize=8;strokeWidth=4;strokeColor=#3333FF;entryX=-0.012;entryY=0.75;entryDx=0;entryDy=0;entryPerimeter=0;exitX=1;exitY=0;exitDx=0;exitDy=0;" parent="1" target="107" edge="1">
                    <mxGeometry width="100" relative="1" as="geometry">
                        <mxPoint x="1160.0000000000002" y="1000" as="sourcePoint"/>
                        <mxPoint x="1270" y="1000" as="targetPoint"/>
                        <Array as="points"/>
                    </mxGeometry>
                </mxCell>
                <mxCell id="111" value="" style="edgeStyle=segmentEdgeStyle;endArrow=classic;html=1;curved=0;rounded=0;endSize=8;startSize=8;sourcePerimeterSpacing=0;targetPerimeterSpacing=0;exitX=1;exitY=0;exitDx=0;exitDy=0;strokeWidth=4;strokeColor=#3333FF;startArrow=classic;startFill=1;entryX=-0.03;entryY=0.444;entryDx=0;entryDy=0;entryPerimeter=0;" parent="1" target="107" edge="1">
                    <mxGeometry width="100" relative="1" as="geometry">
                        <mxPoint x="1160.0000000000002" y="519.9999999999999" as="sourcePoint"/>
                        <mxPoint x="1270" y="968" as="targetPoint"/>
                        <Array as="points">
                            <mxPoint x="1220" y="520"/>
                            <mxPoint x="1220" y="967"/>
                        </Array>
                    </mxGeometry>
                </mxCell>
                <mxCell id="112" value="" style="group" parent="1" vertex="1" connectable="0">
                    <mxGeometry x="200" y="350" width="1040" height="800" as="geometry"/>
                </mxCell>
                <mxCell id="113" value="Leaderboard Module" style="rounded=0;whiteSpace=wrap;html=1;movable=0;resizable=0;rotatable=0;deletable=0;editable=0;locked=1;connectable=0;" parent="112" vertex="1">
                    <mxGeometry width="994.9999999999999" height="40" as="geometry"/>
                </mxCell>
                <mxCell id="114" value="" style="rounded=0;whiteSpace=wrap;html=1;fillColor=none;movable=0;resizable=0;rotatable=0;deletable=0;editable=0;locked=1;connectable=0;" parent="112" vertex="1">
                    <mxGeometry y="40" width="994.9999999999999" height="720" as="geometry"/>
                </mxCell>
                <mxCell id="115" value="" style="group;align=left;" parent="112" vertex="1" connectable="0">
                    <mxGeometry x="39.79899497487437" y="520" width="278.59296482412066" height="160" as="geometry"/>
                </mxCell>
                <mxCell id="116" value="Leaderboard Crontoller" style="rounded=0;whiteSpace=wrap;html=1;" parent="115" vertex="1">
                    <mxGeometry width="278.59296482412066" height="40" as="geometry"/>
                </mxCell>
                <mxCell id="117" value="&lt;div&gt;&lt;font color=&quot;#000000&quot;&gt;&lt;span style=&quot;white-space: pre;&quot;&gt;&#x9;&lt;/span&gt;GET / leaderbaords / :id&lt;/font&gt;&lt;/div&gt;&lt;div&gt;&lt;font color=&quot;#000000&quot;&gt;&lt;br&gt;&lt;/font&gt;&lt;/div&gt;&lt;div&gt;&lt;font color=&quot;#000000&quot;&gt;&lt;span style=&quot;color: rgb(0, 0, 0);&quot;&gt;&lt;span style=&quot;white-space: pre;&quot;&gt;&#x9;&lt;/span&gt;GET / leaderbaords / :id / players / playerId&lt;/span&gt;&lt;/font&gt;&lt;/div&gt;&lt;div&gt;&lt;font color=&quot;#000000&quot;&gt;&lt;span style=&quot;color: rgb(0, 0, 0);&quot;&gt;&lt;br&gt;&lt;/span&gt;&lt;/font&gt;&lt;/div&gt;&lt;div&gt;&lt;font color=&quot;#000000&quot;&gt;&lt;span style=&quot;color: rgb(0, 0, 0);&quot;&gt;&lt;span style=&quot;color: rgb(0, 0, 0);&quot;&gt;&lt;span style=&quot;white-space: pre;&quot;&gt;&#x9;&lt;/span&gt;GET / leaderbaords / :id / export&lt;/span&gt;&lt;/span&gt;&lt;/font&gt;&lt;/div&gt;&lt;div&gt;&lt;font color=&quot;#000000&quot;&gt;&lt;span style=&quot;color: rgb(0, 0, 0);&quot;&gt;&lt;span style=&quot;color: rgb(0, 0, 0);&quot;&gt;&lt;br&gt;&lt;/span&gt;&lt;/span&gt;&lt;/font&gt;&lt;/div&gt;&lt;div&gt;&lt;font color=&quot;#000000&quot;&gt;&lt;span style=&quot;color: rgb(0, 0, 0);&quot;&gt;&lt;span style=&quot;color: rgb(0, 0, 0);&quot;&gt;&lt;i&gt;&lt;span style=&quot;white-space: pre;&quot;&gt;&#x9;&lt;/span&gt;GET / leaderboards / status&amp;nbsp; (for debugging)&lt;/i&gt;&lt;/span&gt;&lt;/span&gt;&lt;/font&gt;&lt;/div&gt;" style="rounded=0;whiteSpace=wrap;html=1;fillColor=none;align=left;" parent="115" vertex="1">
                    <mxGeometry y="40" width="278.59296482412066" height="120" as="geometry"/>
                </mxCell>
                <mxCell id="118" value="" style="group" parent="112" vertex="1" connectable="0">
                    <mxGeometry x="39.79899497487437" y="120" width="278.59296482412066" height="80" as="geometry"/>
                </mxCell>
                <mxCell id="119" value="&lt;span style=&quot;color: rgb(0, 0, 0);&quot;&gt;Stream Processing Crontoller&lt;/span&gt;" style="rounded=0;whiteSpace=wrap;html=1;" parent="118" vertex="1">
                    <mxGeometry width="278.59296482412066" height="40" as="geometry"/>
                </mxCell>
                <mxCell id="120" value="&lt;span style=&quot;color: rgb(0, 0, 0);&quot;&gt;@ new_player&lt;/span&gt;&lt;div style=&quot;color: rgb(63, 63, 63); scrollbar-color: rgb(226, 226, 226) rgb(251, 251, 251);&quot;&gt;@ score_update&lt;/div&gt;" style="rounded=0;whiteSpace=wrap;html=1;fillColor=none;" parent="118" vertex="1">
                    <mxGeometry y="40" width="278.59296482412066" height="40" as="geometry"/>
                </mxCell>
                <mxCell id="121" value="" style="group" parent="112" vertex="1" connectable="0">
                    <mxGeometry x="397.99" y="120" width="242.01" height="80" as="geometry"/>
                </mxCell>
                <mxCell id="122" value="Stream Processing Service" style="rounded=0;whiteSpace=wrap;html=1;" parent="121" vertex="1">
                    <mxGeometry width="242.01000000000002" height="40" as="geometry"/>
                </mxCell>
                <mxCell id="123" value="&lt;div&gt;&lt;font color=&quot;#000000&quot;&gt;initializePlayer()&lt;/font&gt;&lt;/div&gt;&lt;div&gt;&lt;font color=&quot;#000000&quot;&gt;updateScore()&lt;/font&gt;&lt;/div&gt;" style="rounded=0;whiteSpace=wrap;html=1;fillColor=none;" parent="121" vertex="1">
                    <mxGeometry y="40" width="242.01000000000002" height="40" as="geometry"/>
                </mxCell>
                <mxCell id="124" value="" style="group" parent="112" vertex="1" connectable="0">
                    <mxGeometry x="716.38" y="120" width="243.62" height="80" as="geometry"/>
                </mxCell>
                <mxCell id="125" value="Leaderboard Delta Repository" style="rounded=0;whiteSpace=wrap;html=1;" parent="124" vertex="1">
                    <mxGeometry width="243.61999999999998" height="40" as="geometry"/>
                </mxCell>
                <mxCell id="126" value="&lt;div&gt;&lt;font color=&quot;#000000&quot;&gt;add()&lt;/font&gt;&lt;/div&gt;" style="rounded=0;whiteSpace=wrap;html=1;fillColor=none;" parent="124" vertex="1">
                    <mxGeometry y="40" width="243.61999999999998" height="40" as="geometry"/>
                </mxCell>
                <mxCell id="127" value="" style="group" parent="112" vertex="1" connectable="0">
                    <mxGeometry x="716.38" y="280" width="243.62" height="80" as="geometry"/>
                </mxCell>
                <mxCell id="128" value="Cache Service" style="rounded=0;whiteSpace=wrap;html=1;" parent="127" vertex="1">
                    <mxGeometry width="243.62000000000003" height="40" as="geometry"/>
                </mxCell>
                <mxCell id="129" value="&lt;div&gt;&lt;font color=&quot;#000000&quot;&gt;get(), getRange(),&amp;nbsp;&lt;/font&gt;&lt;span style=&quot;color: rgb(0, 0, 0); background-color: transparent;&quot;&gt;set(),&lt;/span&gt;&lt;/div&gt;&lt;div&gt;&lt;span style=&quot;color: rgb(0, 0, 0); background-color: transparent;&quot;&gt;incrementCachedLeaderboards(), ..&lt;/span&gt;&lt;/div&gt;" style="rounded=0;whiteSpace=wrap;html=1;fillColor=none;" parent="127" vertex="1">
                    <mxGeometry y="40" width="243.62000000000003" height="40" as="geometry"/>
                </mxCell>
                <mxCell id="130" value="" style="group" parent="112" vertex="1" connectable="0">
                    <mxGeometry x="716.38" y="440" width="243.62" height="80" as="geometry"/>
                </mxCell>
                <mxCell id="131" value="Csv Service" style="rounded=0;whiteSpace=wrap;html=1;" parent="130" vertex="1">
                    <mxGeometry width="243.62000000000003" height="40" as="geometry"/>
                </mxCell>
                <mxCell id="132" style="edgeStyle=none;html=1;" parent="130" source="133" edge="1">
                    <mxGeometry relative="1" as="geometry">
                        <mxPoint x="121.81000000000031" y="160" as="targetPoint"/>
                    </mxGeometry>
                </mxCell>
                <mxCell id="171" value="Get Leaderboard&lt;div&gt;Chunk by Chunk&lt;/div&gt;&lt;div&gt;For Export&lt;/div&gt;" style="edgeLabel;html=1;align=center;verticalAlign=middle;resizable=0;points=[];" parent="132" vertex="1" connectable="0">
                    <mxGeometry x="-0.1277" y="1" relative="1" as="geometry">
                        <mxPoint as="offset"/>
                    </mxGeometry>
                </mxCell>
                <mxCell id="133" value="&lt;div&gt;&lt;font color=&quot;#000000&quot;&gt;getReadableStream()&lt;/font&gt;&lt;/div&gt;" style="rounded=0;whiteSpace=wrap;html=1;fillColor=none;" parent="130" vertex="1">
                    <mxGeometry y="40" width="243.62000000000003" height="40" as="geometry"/>
                </mxCell>
                <mxCell id="134" value="" style="group" parent="112" vertex="1" connectable="0">
                    <mxGeometry x="716.38" y="600" width="243.62" height="80" as="geometry"/>
                </mxCell>
                <mxCell id="135" value="Leaderboard Repository" style="rounded=0;whiteSpace=wrap;html=1;" parent="134" vertex="1">
                    <mxGeometry width="243.62000000000003" height="40" as="geometry"/>
                </mxCell>
                <mxCell id="136" value="&lt;div&gt;&lt;font color=&quot;#000000&quot;&gt;find(), aggregate(), insertOrIgnore()&lt;/font&gt;&lt;/div&gt;" style="rounded=0;whiteSpace=wrap;html=1;fillColor=none;" parent="134" vertex="1">
                    <mxGeometry y="40" width="243.62000000000003" height="40" as="geometry"/>
                </mxCell>
                <mxCell id="137" value="" style="group" parent="112" vertex="1" connectable="0">
                    <mxGeometry x="395.5" y="320" width="244.5" height="80" as="geometry"/>
                </mxCell>
                <mxCell id="138" value="Leaderboard Sync Service" style="rounded=0;whiteSpace=wrap;html=1;" parent="137" vertex="1">
                    <mxGeometry width="244.5" height="40" as="geometry"/>
                </mxCell>
                <mxCell id="139" value="&lt;div&gt;&lt;font color=&quot;#000000&quot;&gt;addToActive(), addToInactive(),&lt;/font&gt;&lt;/div&gt;&lt;div&gt;&lt;font color=&quot;#000000&quot;&gt;getActiveAndCachedLeaderboards(), ...&lt;/font&gt;&lt;/div&gt;" style="rounded=0;whiteSpace=wrap;html=1;fillColor=none;" parent="137" vertex="1">
                    <mxGeometry y="40" width="244.5" height="40" as="geometry"/>
                </mxCell>
                <mxCell id="140" value="" style="group" parent="112" vertex="1" connectable="0">
                    <mxGeometry x="395.5" y="520" width="244.5" height="160" as="geometry"/>
                </mxCell>
                <mxCell id="141" value="Leaderboard Service" style="rounded=0;whiteSpace=wrap;html=1;" parent="140" vertex="1">
                    <mxGeometry width="244.5" height="40" as="geometry"/>
                </mxCell>
                <mxCell id="142" value="&lt;div&gt;&lt;font color=&quot;#000000&quot;&gt;getEntries(),&amp;nbsp;&lt;/font&gt;&lt;span style=&quot;background-color: transparent;&quot;&gt;getPlayerPosition(),&lt;/span&gt;&lt;/div&gt;&lt;div&gt;&lt;font color=&quot;#000000&quot;&gt;getReadable(), getStatus()&lt;/font&gt;&lt;/div&gt;&lt;div&gt;&lt;font color=&quot;#000000&quot;&gt;&lt;br&gt;&lt;/font&gt;&lt;/div&gt;&lt;div&gt;&lt;font color=&quot;#000000&quot;&gt;@Cron()&lt;/font&gt;&lt;/div&gt;&lt;div&gt;&lt;font&gt;createCurrentLeaderboards()&lt;/font&gt;&lt;/div&gt;&lt;div&gt;refreshCurrentLeaderboards()&lt;/div&gt;" style="rounded=0;whiteSpace=wrap;html=1;fillColor=none;" parent="140" vertex="1">
                    <mxGeometry y="40" width="244.5" height="120" as="geometry"/>
                </mxCell>
                <mxCell id="143" style="edgeStyle=none;html=1;exitX=1;exitY=0.5;exitDx=0;exitDy=0;entryX=0;entryY=0.5;entryDx=0;entryDy=0;" parent="112" source="117" target="142" edge="1">
                    <mxGeometry relative="1" as="geometry"/>
                </mxCell>
                <mxCell id="144" style="edgeStyle=none;html=1;exitX=1;exitY=0;exitDx=0;exitDy=0;entryX=0;entryY=0;entryDx=0;entryDy=0;" parent="112" source="120" target="123" edge="1">
                    <mxGeometry relative="1" as="geometry"/>
                </mxCell>
                <mxCell id="146" style="edgeStyle=none;html=1;entryX=1;entryY=0.5;entryDx=0;entryDy=0;exitX=0;exitY=0.5;exitDx=0;exitDy=0;" parent="112" source="129" target="138" edge="1">
                    <mxGeometry relative="1" as="geometry"/>
                </mxCell>
                <mxCell id="162" value="Sync Cache" style="edgeLabel;html=1;align=center;verticalAlign=middle;resizable=0;points=[];fontSize=10;" parent="146" vertex="1" connectable="0">
                    <mxGeometry x="0.1386" y="-1" relative="1" as="geometry">
                        <mxPoint x="6" y="-9" as="offset"/>
                    </mxGeometry>
                </mxCell>
                <mxCell id="147" style="edgeStyle=none;html=1;exitX=1;exitY=1;exitDx=0;exitDy=0;entryX=0;entryY=0;entryDx=0;entryDy=0;" parent="112" source="123" target="128" edge="1">
                    <mxGeometry relative="1" as="geometry">
                        <mxPoint x="716.3819095477387" y="300" as="targetPoint"/>
                    </mxGeometry>
                </mxCell>
                <mxCell id="168" value="Increment&lt;div&gt;If Cached&lt;/div&gt;" style="edgeLabel;html=1;align=center;verticalAlign=middle;resizable=0;points=[];" parent="147" vertex="1" connectable="0">
                    <mxGeometry x="-0.2607" relative="1" as="geometry">
                        <mxPoint as="offset"/>
                    </mxGeometry>
                </mxCell>
                <mxCell id="148" style="edgeStyle=none;html=1;exitX=1;exitY=0;exitDx=0;exitDy=0;entryX=0;entryY=0;entryDx=0;entryDy=0;" parent="112" source="123" target="126" edge="1">
                    <mxGeometry relative="1" as="geometry"/>
                </mxCell>
                <mxCell id="167" value="Insert&lt;div&gt;Delta&lt;/div&gt;" style="edgeLabel;html=1;align=center;verticalAlign=middle;resizable=0;points=[];" parent="148" vertex="1" connectable="0">
                    <mxGeometry x="-0.0235" y="-2" relative="1" as="geometry">
                        <mxPoint as="offset"/>
                    </mxGeometry>
                </mxCell>
                <mxCell id="149" style="edgeStyle=none;html=1;entryX=0;entryY=0.25;entryDx=0;entryDy=0;" parent="112" edge="1">
                    <mxGeometry relative="1" as="geometry">
                        <mxPoint x="640" y="640" as="sourcePoint"/>
                        <mxPoint x="716.3819095477387" y="640" as="targetPoint"/>
                    </mxGeometry>
                </mxCell>
                <mxCell id="170" value="Get and Cache&lt;div&gt;Leaderboard&lt;/div&gt;" style="edgeLabel;html=1;align=center;verticalAlign=middle;resizable=0;points=[];" parent="149" vertex="1" connectable="0">
                    <mxGeometry x="-0.2005" y="-1" relative="1" as="geometry">
                        <mxPoint x="7" y="-19" as="offset"/>
                    </mxGeometry>
                </mxCell>
                <mxCell id="150" value="&lt;font style=&quot;font-size: 10px;&quot;&gt;Refresh current Leaderboards&lt;/font&gt;&lt;div&gt;&lt;span style=&quot;color: rgb(63, 63, 63); background-color: light-dark(#ffffff, var(--ge-dark-color, #121212));&quot;&gt;&lt;font style=&quot;font-size: 10px;&quot;&gt;after Midnight&lt;/font&gt;&lt;/span&gt;&lt;/div&gt;" style="edgeStyle=none;html=1;exitX=0.5;exitY=0;exitDx=0;exitDy=0;entryX=0.5;entryY=1;entryDx=0;entryDy=0;" parent="112" source="141" target="139" edge="1">
                    <mxGeometry relative="1" as="geometry">
                        <mxPoint as="offset"/>
                    </mxGeometry>
                </mxCell>
                <mxCell id="151" style="edgeStyle=none;html=1;exitX=1;exitY=0.25;exitDx=0;exitDy=0;entryX=0;entryY=0;entryDx=0;entryDy=0;" parent="112" source="142" target="133" edge="1">
                    <mxGeometry relative="1" as="geometry"/>
                </mxCell>
                <mxCell id="172" value="Get&lt;div&gt;Readable&lt;div&gt;Stream&lt;/div&gt;&lt;/div&gt;" style="edgeLabel;html=1;align=center;verticalAlign=middle;resizable=0;points=[];" parent="151" vertex="1" connectable="0">
                    <mxGeometry x="0.144" relative="1" as="geometry">
                        <mxPoint as="offset"/>
                    </mxGeometry>
                </mxCell>
                <mxCell id="152" style="edgeStyle=none;html=1;exitX=1;exitY=0;exitDx=0;exitDy=0;entryX=0;entryY=1;entryDx=0;entryDy=0;" parent="112" source="141" target="129" edge="1">
                    <mxGeometry relative="1" as="geometry">
                        <mxPoint x="789.7562499999999" y="360" as="targetPoint"/>
                    </mxGeometry>
                </mxCell>
                <mxCell id="169" value="Get Cached&lt;div&gt;Leaderboad&lt;/div&gt;" style="edgeLabel;html=1;align=center;verticalAlign=middle;resizable=0;points=[];" parent="152" vertex="1" connectable="0">
                    <mxGeometry x="0.0685" y="-1" relative="1" as="geometry">
                        <mxPoint as="offset"/>
                    </mxGeometry>
                </mxCell>
                <mxCell id="158" style="edgeStyle=none;html=1;entryX=0;entryY=1;entryDx=0;entryDy=0;strokeWidth=4;" parent="112" edge="1">
                    <mxGeometry relative="1" as="geometry">
                        <mxPoint x="-75.2" y="610" as="sourcePoint"/>
                        <mxPoint x="39.80000000000001" y="611" as="targetPoint"/>
                    </mxGeometry>
                </mxCell>
                <mxCell id="173" value="" style="whiteSpace=wrap;html=1;fillColor=none;" parent="112" vertex="1">
                    <mxGeometry x="-40" y="-150" width="1080" height="950" as="geometry"/>
                </mxCell>
                <mxCell id="154" value="Users" style="sketch=0;outlineConnect=0;fillColor=none;dashed=0;verticalLabelPosition=bottom;verticalAlign=top;align=center;html=1;fontSize=12;fontStyle=0;aspect=fixed;shape=mxgraph.aws4.resourceIcon;resIcon=mxgraph.aws4.users;" parent="1" vertex="1">
                    <mxGeometry y="910" width="130" height="130" as="geometry"/>
                </mxCell>
                <mxCell id="157" style="edgeStyle=none;html=1;entryX=0;entryY=1;entryDx=0;entryDy=0;strokeWidth=4;" parent="1" source="156" target="119" edge="1">
                    <mxGeometry relative="1" as="geometry"/>
                </mxCell>
                <mxCell id="156" value="" style="shape=image;verticalLabelPosition=bottom;labelBackgroundColor=default;verticalAlign=top;aspect=fixed;imageAspect=0;image=https://cloudian.com/wp-content/uploads/2024/03/kafka-logo.png;fontColor=#666666;" parent="1" vertex="1">
                    <mxGeometry x="5" y="449" width="120" height="125.44" as="geometry"/>
                </mxCell>
                <mxCell id="174" value="App Module" style="whiteSpace=wrap;html=1;" parent="1" vertex="1">
                    <mxGeometry x="160" y="160" width="1080" height="40" as="geometry"/>
                </mxCell>
                <mxCell id="175" value="" style="edgeStyle=none;orthogonalLoop=1;jettySize=auto;html=1;endArrow=classic;startArrow=classic;endSize=8;startSize=8;strokeWidth=4;strokeColor=#990000;entryX=-0.024;entryY=0.494;entryDx=0;entryDy=0;entryPerimeter=0;" parent="1" edge="1">
                    <mxGeometry width="100" relative="1" as="geometry">
                        <mxPoint x="1160" y="669.6800000000001" as="sourcePoint"/>
                        <mxPoint x="1260" y="669.6800000000001" as="targetPoint"/>
                        <Array as="points"/>
                    </mxGeometry>
                </mxCell>
            </root>
        </mxGraphModel>
    </diagram>
</mxfile>